<mxfile host="app.diagrams.net" agent="Mozilla/5.0 (Windows NT 10.0; Win64; x64) AppleWebKit/537.36 (KHTML, like Gecko) Chrome/133.0.0.0 Safari/537.36" version="26.0.16">
  <diagram name="PÃ¡gina-1" id="Ws16FNBgbCA_97wGVajP">
    <mxGraphModel dx="2543" dy="2156" grid="1" gridSize="10" guides="1" tooltips="1" connect="1" arrows="1" fold="1" page="1" pageScale="1" pageWidth="827" pageHeight="1169" math="0" shadow="0">
      <root>
        <mxCell id="0" />
        <mxCell id="1" parent="0" />
        <mxCell id="qCT6Almd2B9pcZH31PiC-1" value="Pais" style="swimlane;whiteSpace=wrap;html=1;fillColor=#e1d5e7;strokeColor=#9673a6;" vertex="1" parent="1">
          <mxGeometry x="-290" y="-160" width="100" height="90" as="geometry">
            <mxRectangle x="-140" y="-150" width="60" height="30" as="alternateBounds" />
          </mxGeometry>
        </mxCell>
        <mxCell id="qCT6Almd2B9pcZH31PiC-2" value="&lt;b&gt;PK&lt;span style=&quot;white-space: pre;&quot;&gt;&#x9;&lt;/span&gt;ID&lt;/b&gt;&lt;div&gt;Nombre&lt;/div&gt;" style="text;html=1;align=center;verticalAlign=middle;resizable=0;points=[];autosize=1;strokeColor=none;fillColor=none;" vertex="1" parent="qCT6Almd2B9pcZH31PiC-1">
          <mxGeometry x="17" y="39" width="70" height="40" as="geometry" />
        </mxCell>
        <mxCell id="qCT6Almd2B9pcZH31PiC-3" value="&lt;blockquote style=&quot;margin: 0 0 0 40px; border: none; padding: 0px;&quot;&gt;Salario&lt;/blockquote&gt;" style="swimlane;whiteSpace=wrap;html=1;fillColor=#e1d5e7;strokeColor=#9673a6;startSize=23;align=left;" vertex="1" parent="1">
          <mxGeometry x="100" y="440" width="140" height="100" as="geometry" />
        </mxCell>
        <mxCell id="qCT6Almd2B9pcZH31PiC-15" value="&lt;b&gt;PK&lt;span style=&quot;white-space: pre;&quot;&gt;&#x9;&lt;/span&gt;ID&lt;/b&gt;&lt;div&gt;ValorBrutoAnual&lt;/div&gt;&lt;div&gt;PagoExtraDiciembre&lt;/div&gt;&lt;div&gt;PagoExtraJunii&lt;/div&gt;" style="text;html=1;align=center;verticalAlign=middle;resizable=0;points=[];autosize=1;strokeColor=none;fillColor=none;" vertex="1" parent="qCT6Almd2B9pcZH31PiC-3">
          <mxGeometry x="5" y="25" width="130" height="70" as="geometry" />
        </mxCell>
        <mxCell id="qCT6Almd2B9pcZH31PiC-4" value="Ubicacion" style="swimlane;whiteSpace=wrap;html=1;fillColor=#e1d5e7;strokeColor=#9673a6;" vertex="1" parent="1">
          <mxGeometry x="120" y="-160" width="130" height="117" as="geometry">
            <mxRectangle x="290" y="-50" width="90" height="30" as="alternateBounds" />
          </mxGeometry>
        </mxCell>
        <mxCell id="qCT6Almd2B9pcZH31PiC-12" value="&lt;b&gt;PK&lt;span style=&quot;white-space: pre;&quot;&gt;&#x9;&lt;/span&gt;ID&lt;/b&gt;&lt;div&gt;&lt;b&gt;FK&lt;span style=&quot;white-space: pre;&quot;&gt;&#x9;&lt;/span&gt;ID_Poblacion&lt;/b&gt;&lt;/div&gt;&lt;div&gt;Nombre&lt;/div&gt;&lt;div&gt;Direccion&lt;/div&gt;&lt;div&gt;CodigoPostal&lt;/div&gt;" style="text;html=1;align=center;verticalAlign=middle;resizable=0;points=[];autosize=1;strokeColor=none;fillColor=none;" vertex="1" parent="qCT6Almd2B9pcZH31PiC-4">
          <mxGeometry x="-1" y="27" width="130" height="90" as="geometry" />
        </mxCell>
        <mxCell id="qCT6Almd2B9pcZH31PiC-6" value="Puesto" style="swimlane;whiteSpace=wrap;html=1;fillColor=#e1d5e7;strokeColor=#9673a6;" vertex="1" parent="1">
          <mxGeometry x="150" y="270" width="90" height="80" as="geometry">
            <mxRectangle x="120" y="190" width="80" height="30" as="alternateBounds" />
          </mxGeometry>
        </mxCell>
        <mxCell id="qCT6Almd2B9pcZH31PiC-14" value="&lt;b&gt;PK&lt;span style=&quot;white-space: pre;&quot;&gt;&#x9;&lt;/span&gt;ID&lt;/b&gt;&lt;div&gt;Nombre&lt;/div&gt;&lt;div&gt;Descripcion&lt;/div&gt;" style="text;html=1;align=center;verticalAlign=middle;resizable=0;points=[];autosize=1;strokeColor=none;fillColor=none;" vertex="1" parent="qCT6Almd2B9pcZH31PiC-6">
          <mxGeometry x="-1" y="23" width="90" height="60" as="geometry" />
        </mxCell>
        <mxCell id="qCT6Almd2B9pcZH31PiC-7" value="Empleado" style="swimlane;whiteSpace=wrap;html=1;fillColor=#e1d5e7;strokeColor=#9673a6;" vertex="1" parent="1">
          <mxGeometry x="130" y="60" width="130" height="130" as="geometry">
            <mxRectangle x="80" y="-10" width="90" height="30" as="alternateBounds" />
          </mxGeometry>
        </mxCell>
        <mxCell id="qCT6Almd2B9pcZH31PiC-8" value="Poblacion" style="swimlane;whiteSpace=wrap;html=1;fillColor=#e1d5e7;strokeColor=#9673a6;startSize=23;" vertex="1" parent="1">
          <mxGeometry x="-100" y="-160" width="100" height="80" as="geometry">
            <mxRectangle x="-70" y="-60" width="90" height="30" as="alternateBounds" />
          </mxGeometry>
        </mxCell>
        <mxCell id="qCT6Almd2B9pcZH31PiC-11" value="&lt;b&gt;PK&lt;span style=&quot;white-space: pre;&quot;&gt;&#x9;&lt;/span&gt;ID&lt;/b&gt;&lt;div&gt;&lt;b&gt;FK&lt;span style=&quot;white-space: pre;&quot;&gt;&#x9;&lt;/span&gt;ID_Pais&lt;/b&gt;&lt;/div&gt;&lt;div&gt;Nombre&lt;/div&gt;" style="text;html=1;align=center;verticalAlign=middle;resizable=0;points=[];autosize=1;strokeColor=none;fillColor=none;" vertex="1" parent="qCT6Almd2B9pcZH31PiC-8">
          <mxGeometry x="4" y="24" width="90" height="60" as="geometry" />
        </mxCell>
        <mxCell id="qCT6Almd2B9pcZH31PiC-18" value="" style="edgeStyle=entityRelationEdgeStyle;fontSize=12;html=1;endArrow=ERoneToMany;rounded=0;fillColor=#e1d5e7;strokeColor=#9673a6;" edge="1" parent="1" target="qCT6Almd2B9pcZH31PiC-13">
          <mxGeometry width="100" height="100" relative="1" as="geometry">
            <mxPoint x="250" y="-100" as="sourcePoint" />
            <mxPoint x="350" y="-200" as="targetPoint" />
          </mxGeometry>
        </mxCell>
        <mxCell id="qCT6Almd2B9pcZH31PiC-19" value="" style="edgeStyle=entityRelationEdgeStyle;fontSize=12;html=1;endArrow=ERoneToMany;rounded=0;fillColor=#e1d5e7;strokeColor=#9673a6;exitX=1;exitY=0.5;exitDx=0;exitDy=0;" edge="1" parent="1" source="qCT6Almd2B9pcZH31PiC-1">
          <mxGeometry width="100" height="100" relative="1" as="geometry">
            <mxPoint x="-200" y="-10" as="sourcePoint" />
            <mxPoint x="-100" y="-110" as="targetPoint" />
          </mxGeometry>
        </mxCell>
        <mxCell id="qCT6Almd2B9pcZH31PiC-20" value="" style="edgeStyle=entityRelationEdgeStyle;fontSize=12;html=1;endArrow=ERoneToMany;rounded=0;fillColor=#e1d5e7;strokeColor=#9673a6;" edge="1" parent="1">
          <mxGeometry width="100" height="100" relative="1" as="geometry">
            <mxPoint y="-110" as="sourcePoint" />
            <mxPoint x="119" y="-93" as="targetPoint" />
          </mxGeometry>
        </mxCell>
        <mxCell id="qCT6Almd2B9pcZH31PiC-13" value="&lt;b&gt;PK&lt;span style=&quot;white-space: pre;&quot;&gt;&#x9;&lt;/span&gt;ID&lt;/b&gt;&lt;div&gt;&lt;b&gt;FK&lt;span style=&quot;white-space: pre;&quot;&gt;&#x9;&lt;/span&gt;ID_Ubicacion&lt;/b&gt;&lt;/div&gt;&lt;div&gt;&lt;b&gt;FK&lt;span style=&quot;white-space: pre;&quot;&gt;&#x9;&lt;/span&gt;ID_Puesto&lt;/b&gt;&lt;/div&gt;&lt;div&gt;Nombre&lt;/div&gt;&lt;div&gt;Documento&lt;/div&gt;&lt;div&gt;Email&lt;/div&gt;&lt;div&gt;Direccion&lt;/div&gt;" style="text;html=1;align=center;verticalAlign=middle;resizable=0;points=[];autosize=1;strokeColor=none;fillColor=none;" vertex="1" parent="1">
          <mxGeometry x="130" y="80" width="130" height="110" as="geometry" />
        </mxCell>
        <mxCell id="qCT6Almd2B9pcZH31PiC-25" value="" style="edgeStyle=orthogonalEdgeStyle;fontSize=12;html=1;endArrow=ERzeroToMany;endFill=1;rounded=0;exitX=0.501;exitY=0.954;exitDx=0;exitDy=0;exitPerimeter=0;fillColor=#e1d5e7;strokeColor=#9673a6;entryX=0;entryY=0.25;entryDx=0;entryDy=0;" edge="1" parent="1" source="qCT6Almd2B9pcZH31PiC-14" target="qCT6Almd2B9pcZH31PiC-3">
          <mxGeometry width="100" height="100" relative="1" as="geometry">
            <mxPoint x="230" y="320" as="sourcePoint" />
            <mxPoint x="110" y="470" as="targetPoint" />
          </mxGeometry>
        </mxCell>
        <mxCell id="qCT6Almd2B9pcZH31PiC-27" value="" style="fontSize=12;html=1;endArrow=ERmandOne;rounded=0;exitX=0.5;exitY=0;exitDx=0;exitDy=0;fillColor=#e1d5e7;strokeColor=#9673a6;" edge="1" parent="1">
          <mxGeometry width="100" height="100" relative="1" as="geometry">
            <mxPoint x="199" y="270" as="sourcePoint" />
            <mxPoint x="199" y="189" as="targetPoint" />
          </mxGeometry>
        </mxCell>
      </root>
    </mxGraphModel>
  </diagram>
</mxfile>
